<mxfile host="app.diagrams.net" modified="2024-04-07T19:03:50.774Z" agent="Mozilla/5.0 (Macintosh; Intel Mac OS X 10_15_7) AppleWebKit/537.36 (KHTML, like Gecko) Chrome/120.0.0.0 Safari/537.36" etag="AfgCK-WJ-Wg9r5KwHf71" version="24.0.2" type="device">
  <diagram name="PÃ¡gina-1" id="iq6flt4vdOkJGDqH7qfD">
    <mxGraphModel dx="954" dy="617" grid="1" gridSize="10" guides="1" tooltips="1" connect="1" arrows="1" fold="1" page="1" pageScale="1" pageWidth="827" pageHeight="1169" math="0" shadow="0">
      <root>
        <mxCell id="0" />
        <mxCell id="1" parent="0" />
        <mxCell id="64OTHS-WfmFGj3wx8KaC-112" value="" style="rounded=0;whiteSpace=wrap;html=1;" parent="1" vertex="1">
          <mxGeometry x="1241" y="240" width="160" height="330" as="geometry" />
        </mxCell>
        <mxCell id="64OTHS-WfmFGj3wx8KaC-113" value="Product Details 1" style="rounded=0;whiteSpace=wrap;html=1;" parent="1" vertex="1">
          <mxGeometry x="1241" y="240" width="160" height="40" as="geometry" />
        </mxCell>
        <mxCell id="64OTHS-WfmFGj3wx8KaC-114" value="Feedback" style="rounded=0;whiteSpace=wrap;html=1;" parent="1" vertex="1">
          <mxGeometry x="1272.5" y="370" width="97" height="60" as="geometry" />
        </mxCell>
        <mxCell id="64OTHS-WfmFGj3wx8KaC-115" value="" style="rounded=0;whiteSpace=wrap;html=1;" parent="1" vertex="1">
          <mxGeometry x="1401" y="240" width="329" height="330" as="geometry" />
        </mxCell>
        <mxCell id="64OTHS-WfmFGj3wx8KaC-116" value="Rating Products" style="rounded=0;whiteSpace=wrap;html=1;" parent="1" vertex="1">
          <mxGeometry x="1401" y="240" width="329" height="40" as="geometry" />
        </mxCell>
        <mxCell id="64OTHS-WfmFGj3wx8KaC-117" value="" style="endArrow=classic;html=1;rounded=0;exitX=1;exitY=0.5;exitDx=0;exitDy=0;entryX=0;entryY=0.5;entryDx=0;entryDy=0;" parent="1" source="64OTHS-WfmFGj3wx8KaC-114" target="64OTHS-WfmFGj3wx8KaC-118" edge="1">
          <mxGeometry width="50" height="50" relative="1" as="geometry">
            <mxPoint x="1369.5" y="400" as="sourcePoint" />
            <mxPoint x="1279.5" y="410" as="targetPoint" />
            <Array as="points" />
          </mxGeometry>
        </mxCell>
        <mxCell id="64OTHS-WfmFGj3wx8KaC-118" value="Save Product" style="rounded=0;whiteSpace=wrap;html=1;" parent="1" vertex="1">
          <mxGeometry x="1441" y="370" width="97" height="60" as="geometry" />
        </mxCell>
        <mxCell id="64OTHS-WfmFGj3wx8KaC-119" value="OK" style="rounded=0;whiteSpace=wrap;html=1;" parent="1" vertex="1">
          <mxGeometry x="1610" y="370" width="97" height="60" as="geometry" />
        </mxCell>
        <mxCell id="64OTHS-WfmFGj3wx8KaC-107" value="" style="rounded=0;whiteSpace=wrap;html=1;" parent="1" vertex="1">
          <mxGeometry x="900" y="240" width="340" height="330" as="geometry" />
        </mxCell>
        <mxCell id="64OTHS-WfmFGj3wx8KaC-50" value="" style="rounded=0;whiteSpace=wrap;html=1;" parent="1" vertex="1">
          <mxGeometry x="580" y="570" width="320" height="190" as="geometry" />
        </mxCell>
        <mxCell id="64OTHS-WfmFGj3wx8KaC-51" value="" style="rounded=0;whiteSpace=wrap;html=1;" parent="1" vertex="1">
          <mxGeometry x="410" y="240" width="490" height="330" as="geometry" />
        </mxCell>
        <mxCell id="64OTHS-WfmFGj3wx8KaC-71" value="News" style="rounded=0;whiteSpace=wrap;html=1;" parent="1" vertex="1">
          <mxGeometry x="410" y="240" width="490" height="40" as="geometry" />
        </mxCell>
        <mxCell id="64OTHS-WfmFGj3wx8KaC-72" value="" style="endArrow=classic;html=1;rounded=0;exitX=1;exitY=0.5;exitDx=0;exitDy=0;entryX=0;entryY=0.5;entryDx=0;entryDy=0;" parent="1" target="64OTHS-WfmFGj3wx8KaC-73" edge="1">
          <mxGeometry width="50" height="50" relative="1" as="geometry">
            <mxPoint x="700" y="395" as="sourcePoint" />
            <mxPoint x="766" y="400" as="targetPoint" />
            <Array as="points" />
          </mxGeometry>
        </mxCell>
        <mxCell id="64OTHS-WfmFGj3wx8KaC-73" value="Read More" style="rounded=0;whiteSpace=wrap;html=1;" parent="1" vertex="1">
          <mxGeometry x="771.5" y="430" width="97" height="60" as="geometry" />
        </mxCell>
        <mxCell id="64OTHS-WfmFGj3wx8KaC-74" value="" style="endArrow=classic;html=1;rounded=0;exitX=1;exitY=0.5;exitDx=0;exitDy=0;entryX=0;entryY=0.5;entryDx=0;entryDy=0;" parent="1" target="64OTHS-WfmFGj3wx8KaC-75" edge="1">
          <mxGeometry width="50" height="50" relative="1" as="geometry">
            <mxPoint x="700" y="395" as="sourcePoint" />
            <mxPoint x="620" y="410" as="targetPoint" />
            <Array as="points" />
          </mxGeometry>
        </mxCell>
        <mxCell id="64OTHS-WfmFGj3wx8KaC-75" value="Stattics" style="rounded=0;whiteSpace=wrap;html=1;" parent="1" vertex="1">
          <mxGeometry x="771.5" y="310" width="97" height="60" as="geometry" />
        </mxCell>
        <mxCell id="64OTHS-WfmFGj3wx8KaC-76" value="" style="endArrow=classic;html=1;rounded=0;exitX=0.5;exitY=1;exitDx=0;exitDy=0;" parent="1" source="64OTHS-WfmFGj3wx8KaC-73" edge="1">
          <mxGeometry width="50" height="50" relative="1" as="geometry">
            <mxPoint x="720" y="410" as="sourcePoint" />
            <mxPoint x="820" y="620" as="targetPoint" />
            <Array as="points" />
          </mxGeometry>
        </mxCell>
        <mxCell id="64OTHS-WfmFGj3wx8KaC-77" value="News Details" style="rounded=0;whiteSpace=wrap;html=1;" parent="1" vertex="1">
          <mxGeometry x="580" y="720" width="320" height="40" as="geometry" />
        </mxCell>
        <mxCell id="64OTHS-WfmFGj3wx8KaC-78" value="News" style="rounded=0;whiteSpace=wrap;html=1;" parent="1" vertex="1">
          <mxGeometry x="771.5" y="620" width="97" height="60" as="geometry" />
        </mxCell>
        <mxCell id="64OTHS-WfmFGj3wx8KaC-80" value="" style="curved=1;endArrow=classic;html=1;rounded=0;exitX=0;exitY=0.5;exitDx=0;exitDy=0;entryX=0.75;entryY=1;entryDx=0;entryDy=0;" parent="1" target="OF92bRlWm9JAq1AMu3dJ-1" edge="1">
          <mxGeometry width="50" height="50" relative="1" as="geometry">
            <mxPoint x="771.5" y="655" as="sourcePoint" />
            <mxPoint x="643.75" y="440" as="targetPoint" />
            <Array as="points">
              <mxPoint x="640" y="610" />
              <mxPoint x="640" y="510" />
            </Array>
          </mxGeometry>
        </mxCell>
        <mxCell id="64OTHS-WfmFGj3wx8KaC-81" value="Back" style="text;html=1;align=center;verticalAlign=middle;whiteSpace=wrap;rounded=0;" parent="1" vertex="1">
          <mxGeometry x="660" y="585" width="60" height="30" as="geometry" />
        </mxCell>
        <mxCell id="64OTHS-WfmFGj3wx8KaC-82" value="" style="rounded=0;whiteSpace=wrap;html=1;" parent="1" vertex="1">
          <mxGeometry x="580" width="320" height="240" as="geometry" />
        </mxCell>
        <mxCell id="64OTHS-WfmFGj3wx8KaC-83" value="Statics Display" style="rounded=0;whiteSpace=wrap;html=1;" parent="1" vertex="1">
          <mxGeometry x="580" width="320" height="40" as="geometry" />
        </mxCell>
        <mxCell id="64OTHS-WfmFGj3wx8KaC-84" value="" style="endArrow=classic;html=1;rounded=0;exitX=0.5;exitY=0;exitDx=0;exitDy=0;entryX=0.5;entryY=1;entryDx=0;entryDy=0;" parent="1" source="64OTHS-WfmFGj3wx8KaC-75" target="64OTHS-WfmFGj3wx8KaC-85" edge="1">
          <mxGeometry width="50" height="50" relative="1" as="geometry">
            <mxPoint x="868.5" y="400" as="sourcePoint" />
            <mxPoint x="778.5" y="410" as="targetPoint" />
            <Array as="points" />
          </mxGeometry>
        </mxCell>
        <mxCell id="64OTHS-WfmFGj3wx8KaC-85" value="Statics 1&amp;amp; 2" style="rounded=0;whiteSpace=wrap;html=1;" parent="1" vertex="1">
          <mxGeometry x="720" y="90" width="97" height="60" as="geometry" />
        </mxCell>
        <mxCell id="64OTHS-WfmFGj3wx8KaC-86" value="" style="endArrow=classic;html=1;rounded=0;exitX=1;exitY=0.5;exitDx=0;exitDy=0;entryX=0;entryY=0.5;entryDx=0;entryDy=0;" parent="1" target="64OTHS-WfmFGj3wx8KaC-87" edge="1">
          <mxGeometry width="50" height="50" relative="1" as="geometry">
            <mxPoint x="1037" y="400" as="sourcePoint" />
            <mxPoint x="946.5" y="470" as="targetPoint" />
            <Array as="points" />
          </mxGeometry>
        </mxCell>
        <mxCell id="64OTHS-WfmFGj3wx8KaC-87" value="Read Code" style="rounded=0;whiteSpace=wrap;html=1;" parent="1" vertex="1">
          <mxGeometry x="960" y="370" width="97" height="60" as="geometry" />
        </mxCell>
        <mxCell id="64OTHS-WfmFGj3wx8KaC-90" value="" style="rounded=0;whiteSpace=wrap;html=1;" parent="1" vertex="1">
          <mxGeometry x="1730" y="240" width="160" height="330" as="geometry" />
        </mxCell>
        <mxCell id="64OTHS-WfmFGj3wx8KaC-91" value="SavedProducts" style="rounded=0;whiteSpace=wrap;html=1;" parent="1" vertex="1">
          <mxGeometry x="1730" y="240" width="160" height="40" as="geometry" />
        </mxCell>
        <mxCell id="64OTHS-WfmFGj3wx8KaC-126" value="" style="edgeStyle=orthogonalEdgeStyle;rounded=0;orthogonalLoop=1;jettySize=auto;html=1;entryX=0;entryY=0.5;entryDx=0;entryDy=0;exitX=1;exitY=0.5;exitDx=0;exitDy=0;" parent="1" source="64OTHS-WfmFGj3wx8KaC-119" target="64OTHS-WfmFGj3wx8KaC-92" edge="1">
          <mxGeometry relative="1" as="geometry">
            <mxPoint x="1710" y="400" as="sourcePoint" />
          </mxGeometry>
        </mxCell>
        <mxCell id="64OTHS-WfmFGj3wx8KaC-92" value="List of Saved Products" style="rounded=0;whiteSpace=wrap;html=1;" parent="1" vertex="1">
          <mxGeometry x="1761.5" y="370" width="97" height="60" as="geometry" />
        </mxCell>
        <mxCell id="64OTHS-WfmFGj3wx8KaC-101" value="" style="endArrow=classic;html=1;rounded=0;exitX=1;exitY=0.5;exitDx=0;exitDy=0;entryX=0;entryY=0.5;entryDx=0;entryDy=0;" parent="1" edge="1">
          <mxGeometry width="50" height="50" relative="1" as="geometry">
            <mxPoint x="1538" y="399.5" as="sourcePoint" />
            <mxPoint x="1608.5" y="399.5" as="targetPoint" />
            <Array as="points" />
          </mxGeometry>
        </mxCell>
        <mxCell id="64OTHS-WfmFGj3wx8KaC-104" value="" style="curved=1;endArrow=classic;html=1;rounded=0;entryX=0.75;entryY=0;entryDx=0;entryDy=0;exitX=0;exitY=1;exitDx=0;exitDy=0;" parent="1" source="64OTHS-WfmFGj3wx8KaC-85" target="OF92bRlWm9JAq1AMu3dJ-1" edge="1">
          <mxGeometry width="50" height="50" relative="1" as="geometry">
            <mxPoint x="781.5" y="665" as="sourcePoint" />
            <mxPoint x="655" y="350" as="targetPoint" />
            <Array as="points">
              <mxPoint x="700" y="220" />
              <mxPoint x="700" y="270" />
            </Array>
          </mxGeometry>
        </mxCell>
        <mxCell id="64OTHS-WfmFGj3wx8KaC-105" value="Back" style="text;html=1;align=center;verticalAlign=middle;whiteSpace=wrap;rounded=0;" parent="1" vertex="1">
          <mxGeometry x="650" y="170" width="60" height="30" as="geometry" />
        </mxCell>
        <mxCell id="64OTHS-WfmFGj3wx8KaC-106" value="Observe" style="text;html=1;align=center;verticalAlign=middle;whiteSpace=wrap;rounded=0;" parent="1" vertex="1">
          <mxGeometry x="790" y="200" width="60" height="30" as="geometry" />
        </mxCell>
        <mxCell id="64OTHS-WfmFGj3wx8KaC-108" value="QR CODE" style="rounded=0;whiteSpace=wrap;html=1;" parent="1" vertex="1">
          <mxGeometry x="900" y="240" width="340" height="40" as="geometry" />
        </mxCell>
        <mxCell id="64OTHS-WfmFGj3wx8KaC-109" value="" style="endArrow=classic;html=1;rounded=0;exitX=1;exitY=0.5;exitDx=0;exitDy=0;entryX=0;entryY=0.5;entryDx=0;entryDy=0;" parent="1" target="64OTHS-WfmFGj3wx8KaC-87" edge="1">
          <mxGeometry width="50" height="50" relative="1" as="geometry">
            <mxPoint x="700" y="395" as="sourcePoint" />
            <mxPoint x="782" y="470" as="targetPoint" />
            <Array as="points" />
          </mxGeometry>
        </mxCell>
        <mxCell id="64OTHS-WfmFGj3wx8KaC-110" value="More Details" style="rounded=0;whiteSpace=wrap;html=1;" parent="1" vertex="1">
          <mxGeometry x="1118.5" y="370" width="97" height="60" as="geometry" />
        </mxCell>
        <mxCell id="64OTHS-WfmFGj3wx8KaC-111" value="" style="endArrow=classic;html=1;rounded=0;entryX=0;entryY=0.5;entryDx=0;entryDy=0;" parent="1" source="64OTHS-WfmFGj3wx8KaC-87" target="64OTHS-WfmFGj3wx8KaC-110" edge="1">
          <mxGeometry width="50" height="50" relative="1" as="geometry">
            <mxPoint x="1060" y="400" as="sourcePoint" />
            <mxPoint x="940.5" y="470" as="targetPoint" />
            <Array as="points" />
          </mxGeometry>
        </mxCell>
        <mxCell id="64OTHS-WfmFGj3wx8KaC-120" value="" style="endArrow=classic;html=1;rounded=0;exitX=1;exitY=0.5;exitDx=0;exitDy=0;" parent="1" source="64OTHS-WfmFGj3wx8KaC-110" target="64OTHS-WfmFGj3wx8KaC-114" edge="1">
          <mxGeometry width="50" height="50" relative="1" as="geometry">
            <mxPoint x="1380" y="410" as="sourcePoint" />
            <mxPoint x="1270" y="400" as="targetPoint" />
            <Array as="points" />
          </mxGeometry>
        </mxCell>
        <mxCell id="64OTHS-WfmFGj3wx8KaC-121" value="" style="curved=1;endArrow=classic;html=1;rounded=0;entryX=0.5;entryY=1;entryDx=0;entryDy=0;exitX=0.5;exitY=1;exitDx=0;exitDy=0;" parent="1" source="64OTHS-WfmFGj3wx8KaC-114" target="64OTHS-WfmFGj3wx8KaC-87" edge="1">
          <mxGeometry width="50" height="50" relative="1" as="geometry">
            <mxPoint x="730" y="160" as="sourcePoint" />
            <mxPoint x="680" y="370" as="targetPoint" />
            <Array as="points">
              <mxPoint x="1200" y="580" />
            </Array>
          </mxGeometry>
        </mxCell>
        <mxCell id="64OTHS-WfmFGj3wx8KaC-122" value="Back" style="text;html=1;align=center;verticalAlign=middle;whiteSpace=wrap;rounded=0;" parent="1" vertex="1">
          <mxGeometry x="1150" y="510" width="60" height="30" as="geometry" />
        </mxCell>
        <mxCell id="64OTHS-WfmFGj3wx8KaC-123" value="" style="curved=1;endArrow=classic;html=1;rounded=0;entryX=0.25;entryY=0;entryDx=0;entryDy=0;exitX=0.75;exitY=0;exitDx=0;exitDy=0;" parent="1" source="64OTHS-WfmFGj3wx8KaC-87" target="64OTHS-WfmFGj3wx8KaC-87" edge="1">
          <mxGeometry width="50" height="50" relative="1" as="geometry">
            <mxPoint x="1331" y="440" as="sourcePoint" />
            <mxPoint x="1019" y="440" as="targetPoint" />
            <Array as="points">
              <mxPoint x="1010" y="310" />
            </Array>
          </mxGeometry>
        </mxCell>
        <mxCell id="64OTHS-WfmFGj3wx8KaC-124" value="Repeat" style="text;html=1;align=center;verticalAlign=middle;whiteSpace=wrap;rounded=0;" parent="1" vertex="1">
          <mxGeometry x="978.5" y="300" width="60" height="30" as="geometry" />
        </mxCell>
        <mxCell id="64OTHS-WfmFGj3wx8KaC-125" value="" style="endArrow=classic;html=1;rounded=0;" parent="1" edge="1">
          <mxGeometry width="50" height="50" relative="1" as="geometry">
            <mxPoint x="1760" y="400" as="sourcePoint" />
            <mxPoint x="1760" y="400" as="targetPoint" />
            <Array as="points" />
          </mxGeometry>
        </mxCell>
        <mxCell id="OF92bRlWm9JAq1AMu3dJ-1" value="News Overview" style="rounded=0;whiteSpace=wrap;html=1;" vertex="1" parent="1">
          <mxGeometry x="580" y="370" width="120" height="60" as="geometry" />
        </mxCell>
        <mxCell id="OF92bRlWm9JAq1AMu3dJ-2" value="Save Product" style="ellipse;whiteSpace=wrap;html=1;aspect=fixed;" vertex="1" parent="1">
          <mxGeometry x="420" y="355" width="90" height="90" as="geometry" />
        </mxCell>
        <mxCell id="OF92bRlWm9JAq1AMu3dJ-3" value="" style="endArrow=classic;html=1;rounded=0;" edge="1" parent="1" source="OF92bRlWm9JAq1AMu3dJ-2">
          <mxGeometry width="50" height="50" relative="1" as="geometry">
            <mxPoint x="1067" y="410" as="sourcePoint" />
            <mxPoint x="580" y="400" as="targetPoint" />
            <Array as="points" />
          </mxGeometry>
        </mxCell>
      </root>
    </mxGraphModel>
  </diagram>
</mxfile>
